<svg xmlns="http://www.w3.org/2000/svg" xmlns:xlink="http://www.w3.org/1999/xlink" width="500" zoomAndPan="magnify" viewBox="0 0 375 60" height="80" preserveAspectRatio="xMidYMid meet" version="1.0"><defs><g/><clipPath id="dc5fe79e3f"><path d="M 3 0 L 372 0 C 373.65625 0 375 1.34375 375 3 L 375 57 C 375 58.65625 373.65625 60 372 60 L 3 60 C 1.34375 60 0 58.65625 0 57 L 0 3 C 0 1.34375 1.34375 0 3 0 Z M 3 0 " clip-rule="nonzero"/></clipPath><clipPath id="d11cbdbff0"><path d="M 2.902344 6.730469 L 68.152344 6.730469 L 68.152344 57.730469 L 2.902344 57.730469 Z M 2.902344 6.730469 " clip-rule="nonzero"/></clipPath></defs><rect x="-37.5" width="450" fill="#ffffff" y="-6" height="72" fill-opacity="1"/><rect x="-37.5" width="450" fill="#ffffff" y="-6" height="72" fill-opacity="1"/><g clip-path="url(#dc5fe79e3f)"><rect x="-37.5" width="450" fill="#c30000" y="-6" height="72" fill-opacity="1"/></g><g clip-path="url(#d11cbdbff0)"><path fill="#c30000" d="M 78.714844 60.019531 C 78.714844 67.246094 72.835938 73.128906 65.605469 73.128906 L 5.5625 73.128906 C -1.667969 73.128906 -7.546875 67.246094 -7.546875 60.019531 L -7.546875 -0.0234375 C -7.546875 -7.253906 -1.667969 -13.132812 5.5625 -13.132812 L 65.605469 -13.132812 C 72.835938 -13.132812 78.714844 -7.253906 78.714844 -0.0234375 Z M 78.714844 60.019531 " fill-opacity="1" fill-rule="nonzero"/></g><path fill="#ffffff" d="M 66.160156 30.679688 C 66.160156 35.449219 66.160156 40.503906 65.09375 45.125 C 64.34375 48.378906 61.691406 50.761719 58.480469 51.125 C 50.90625 51.964844 43.226562 51.976562 35.589844 51.964844 C 27.941406 51.964844 20.292969 51.964844 12.703125 51.125 C 9.507812 50.761719 6.835938 48.378906 6.085938 45.125 C 5.023438 40.503906 5.023438 35.449219 5.023438 30.679688 C 5.023438 25.910156 5.035156 20.855469 6.085938 16.234375 C 6.835938 12.980469 9.492188 10.59375 12.703125 10.234375 C 20.292969 9.378906 27.957031 9.378906 35.589844 9.378906 C 43.226562 9.378906 50.890625 9.378906 58.480469 10.234375 C 61.675781 10.59375 64.34375 12.980469 65.09375 16.234375 C 66.160156 20.855469 66.160156 25.910156 66.160156 30.679688 Z M 66.160156 30.679688 " fill-opacity="1" fill-rule="nonzero"/><path fill="#c30000" d="M 29.15625 19.308594 L 29.15625 42.152344 L 46.898438 30.722656 Z M 29.15625 19.308594 " fill-opacity="1" fill-rule="nonzero"/><g fill="#ffffff" fill-opacity="1"><g transform="translate(65.817052, 46.185249)"><g><path d="M 15.734375 -36.296875 C 14.535156 -36.296875 13.710938 -36.140625 13.265625 -35.828125 C 12.816406 -35.523438 12.59375 -34.972656 12.59375 -34.171875 C 12.59375 -33.773438 12.679688 -33.257812 12.859375 -32.625 C 13.035156 -32 13.285156 -31.269531 13.609375 -30.4375 L 20.828125 -11.875 L 26.75 -25.9375 L 24.796875 -31.1875 C 24.066406 -33.101562 23.300781 -34.429688 22.5 -35.171875 C 21.707031 -35.921875 20.609375 -36.296875 19.203125 -36.296875 L 19.203125 -37.265625 L 36.671875 -37.265625 L 36.671875 -36.296875 L 36.015625 -36.296875 C 34.753906 -36.296875 33.894531 -36.140625 33.4375 -35.828125 C 32.988281 -35.523438 32.765625 -35.046875 32.765625 -34.390625 C 32.765625 -33.960938 32.910156 -33.3125 33.203125 -32.4375 L 40.53125 -12.796875 L 46.921875 -29.890625 C 47.578125 -31.703125 47.90625 -33.078125 47.90625 -34.015625 C 47.90625 -35.535156 46.691406 -36.296875 44.265625 -36.296875 L 44.265625 -37.265625 L 53.109375 -37.265625 L 53.109375 -36.296875 C 52.492188 -36.179688 51.941406 -35.828125 51.453125 -35.234375 C 50.960938 -34.640625 50.410156 -33.546875 49.796875 -31.953125 L 37.59375 0.765625 L 36.671875 0.765625 L 27.71875 -23.21875 L 17.796875 0.765625 L 16.765625 0.765625 L 3.859375 -32.65625 C 3.273438 -34.132812 2.785156 -35.097656 2.390625 -35.546875 C 1.992188 -36.003906 1.394531 -36.253906 0.59375 -36.296875 L 0.59375 -37.265625 L 15.734375 -37.265625 Z M 15.734375 -36.296875 "/></g></g></g><g fill="#ffffff" fill-opacity="1"><g transform="translate(119.527525, 46.185249)"><g><path d="M 13.78125 -25.765625 C 16.882812 -25.765625 19.160156 -25.128906 20.609375 -23.859375 C 22.054688 -22.597656 22.78125 -20.992188 22.78125 -19.046875 L 22.78125 -5.640625 C 22.78125 -3.648438 23.285156 -2.65625 24.296875 -2.65625 C 24.585938 -2.65625 24.832031 -2.734375 25.03125 -2.890625 C 25.226562 -3.054688 25.457031 -3.34375 25.71875 -3.75 L 26.203125 -3.25 C 25.691406 -2.019531 24.894531 -1.039062 23.8125 -0.3125 C 22.726562 0.40625 21.519531 0.765625 20.1875 0.765625 C 18.8125 0.765625 17.695312 0.421875 16.84375 -0.265625 C 15.988281 -0.953125 15.492188 -1.96875 15.359375 -3.3125 C 15.140625 -3.164062 14.8125 -2.910156 14.375 -2.546875 C 13.113281 -1.492188 11.9375 -0.675781 10.84375 -0.09375 C 9.757812 0.476562 8.515625 0.765625 7.109375 0.765625 C 5.691406 0.765625 4.503906 0.257812 3.546875 -0.75 C 2.585938 -1.769531 2.109375 -3.003906 2.109375 -4.453125 C 2.109375 -6.328125 2.929688 -8.003906 4.578125 -9.484375 C 6.222656 -10.972656 8.023438 -12.171875 9.984375 -13.078125 L 15.359375 -15.671875 L 15.359375 -20.609375 C 15.359375 -21.515625 15.078125 -22.285156 14.515625 -22.921875 C 13.953125 -23.554688 13.070312 -23.875 11.875 -23.875 C 10.832031 -23.875 9.957031 -23.65625 9.25 -23.21875 C 8.539062 -22.78125 8.1875 -22.253906 8.1875 -21.640625 C 8.1875 -21.421875 8.25 -21.203125 8.375 -20.984375 C 8.507812 -20.773438 8.664062 -20.5625 8.84375 -20.34375 C 9.164062 -19.945312 9.414062 -19.566406 9.59375 -19.203125 C 9.78125 -18.835938 9.875 -18.421875 9.875 -17.953125 C 9.875 -17.085938 9.546875 -16.382812 8.890625 -15.84375 C 8.242188 -15.300781 7.394531 -15.03125 6.34375 -15.03125 C 5.1875 -15.03125 4.242188 -15.335938 3.515625 -15.953125 C 2.796875 -16.566406 2.4375 -17.378906 2.4375 -18.390625 C 2.4375 -19.691406 2.953125 -20.910156 3.984375 -22.046875 C 5.015625 -23.191406 6.394531 -24.097656 8.125 -24.765625 C 9.863281 -25.429688 11.75 -25.765625 13.78125 -25.765625 Z M 9.5 -6.78125 C 9.5 -5.914062 9.738281 -5.210938 10.21875 -4.671875 C 10.707031 -4.128906 11.332031 -3.859375 12.09375 -3.859375 C 12.707031 -3.859375 13.257812 -3.960938 13.75 -4.171875 C 14.238281 -4.390625 14.773438 -4.734375 15.359375 -5.203125 L 15.359375 -13.78125 C 11.453125 -11.789062 9.5 -9.457031 9.5 -6.78125 Z M 9.5 -6.78125 "/></g></g></g><g fill="#ffffff" fill-opacity="1"><g transform="translate(146.654024, 46.185249)"><g><path d="M 10.53125 -34.234375 L 11.453125 -34.234375 L 11.453125 -25.171875 L 17.203125 -25.171875 L 17.203125 -22.453125 L 11.453125 -22.453125 L 11.453125 -5.09375 C 11.453125 -4.40625 11.59375 -3.769531 11.875 -3.1875 C 12.164062 -2.613281 12.675781 -2.328125 13.40625 -2.328125 C 14.632812 -2.328125 15.679688 -3.175781 16.546875 -4.875 L 17.203125 -4.015625 C 15.753906 -0.828125 13.457031 0.765625 10.3125 0.765625 C 8.28125 0.765625 6.722656 0.132812 5.640625 -1.125 C 4.554688 -2.394531 4.015625 -3.9375 4.015625 -5.75 L 4.015625 -22.453125 L 0.921875 -22.453125 L 0.921875 -23.4375 C 2.660156 -24.664062 4.539062 -26.414062 6.5625 -28.6875 C 8.59375 -30.96875 9.914062 -32.816406 10.53125 -34.234375 Z M 10.53125 -34.234375 "/></g></g></g><g fill="#ffffff" fill-opacity="1"><g transform="translate(164.720276, 46.185249)"><g><path d="M 13.671875 -25.765625 C 15.265625 -25.765625 16.726562 -25.472656 18.0625 -24.890625 C 19.40625 -24.316406 20.460938 -23.550781 21.234375 -22.59375 C 22.015625 -21.632812 22.40625 -20.578125 22.40625 -19.421875 C 22.40625 -18.484375 22.085938 -17.707031 21.453125 -17.09375 C 20.816406 -16.476562 20.03125 -16.171875 19.09375 -16.171875 C 17.71875 -16.171875 16.648438 -16.765625 15.890625 -17.953125 C 15.609375 -18.390625 15.410156 -18.820312 15.296875 -19.25 C 15.191406 -19.6875 15.101562 -20.210938 15.03125 -20.828125 C 14.957031 -21.441406 14.875 -21.921875 14.78125 -22.265625 C 14.6875 -22.609375 14.515625 -22.910156 14.265625 -23.171875 C 13.796875 -23.640625 13.21875 -23.875 12.53125 -23.875 C 11.082031 -23.875 10.03125 -23.101562 9.375 -21.5625 C 8.726562 -20.03125 8.40625 -18.175781 8.40625 -16 C 8.40625 -14.269531 8.664062 -12.4375 9.1875 -10.5 C 9.71875 -8.5625 10.578125 -6.894531 11.765625 -5.5 C 12.960938 -4.113281 14.484375 -3.421875 16.328125 -3.421875 C 17.484375 -3.421875 18.476562 -3.609375 19.3125 -3.984375 C 20.144531 -4.367188 21.125 -5.15625 22.25 -6.34375 L 23.109375 -5.75 C 21.953125 -3.65625 20.492188 -2.046875 18.734375 -0.921875 C 16.984375 0.203125 15.023438 0.765625 12.859375 0.765625 C 10.648438 0.765625 8.664062 0.222656 6.90625 -0.859375 C 5.15625 -1.953125 3.78125 -3.460938 2.78125 -5.390625 C 1.789062 -7.328125 1.296875 -9.523438 1.296875 -11.984375 C 1.296875 -14.554688 1.835938 -16.898438 2.921875 -19.015625 C 4.015625 -21.128906 5.5 -22.78125 7.375 -23.96875 C 9.257812 -25.164062 11.359375 -25.765625 13.671875 -25.765625 Z M 13.671875 -25.765625 "/></g></g></g><g fill="#ffffff" fill-opacity="1"><g transform="translate(188.483094, 46.185249)"><g><path d="M 10.578125 -21.8125 L 10.6875 -21.8125 C 12.632812 -24.445312 14.96875 -25.765625 17.6875 -25.765625 C 20.039062 -25.765625 21.757812 -25.003906 22.84375 -23.484375 C 23.925781 -21.972656 24.46875 -20.039062 24.46875 -17.6875 L 24.46875 -3.796875 C 24.46875 -3.148438 24.644531 -2.5625 25 -2.03125 C 25.363281 -1.507812 25.851562 -1.15625 26.46875 -0.96875 L 26.46875 0 L 14.75 0 L 14.75 -0.96875 C 15.582031 -1.1875 16.171875 -1.519531 16.515625 -1.96875 C 16.859375 -2.425781 17.03125 -3.253906 17.03125 -4.453125 L 17.03125 -18.875 C 17.03125 -21.125 16.253906 -22.25 14.703125 -22.25 C 14.046875 -22.25 13.390625 -22.003906 12.734375 -21.515625 C 12.085938 -21.023438 11.367188 -20.21875 10.578125 -19.09375 L 10.578125 -4.390625 C 10.578125 -3.347656 10.75 -2.550781 11.09375 -2 C 11.4375 -1.457031 12.003906 -1.113281 12.796875 -0.96875 L 12.796875 0 L 0.921875 0 L 0.921875 -0.96875 C 1.578125 -1.15625 2.046875 -1.375 2.328125 -1.625 C 2.617188 -1.875 2.828125 -2.28125 2.953125 -2.84375 C 3.078125 -3.40625 3.140625 -4.265625 3.140625 -5.421875 L 3.140625 -33.09375 C 3.140625 -34.175781 2.941406 -34.941406 2.546875 -35.390625 C 2.148438 -35.847656 1.609375 -36.148438 0.921875 -36.296875 L 0.921875 -37.265625 L 10.578125 -37.265625 Z M 10.578125 -21.8125 "/></g></g></g><g fill="#ffffff" fill-opacity="1"><g transform="translate(215.609594, 46.185249)"><g/></g></g><g fill="#ffffff" fill-opacity="1"><g transform="translate(229.172844, 46.185249)"><g><path d="M 13.453125 -25.765625 C 15.660156 -25.765625 17.675781 -25.238281 19.5 -24.1875 C 21.332031 -23.144531 22.796875 -21.617188 23.890625 -19.609375 C 24.992188 -17.597656 25.546875 -15.203125 25.546875 -12.421875 C 25.546875 -9.453125 24.929688 -6.984375 23.703125 -5.015625 C 22.472656 -3.046875 20.945312 -1.585938 19.125 -0.640625 C 17.300781 0.296875 15.484375 0.765625 13.671875 0.765625 C 11.679688 0.765625 9.753906 0.25 7.890625 -0.78125 C 6.023438 -1.8125 4.503906 -3.332031 3.328125 -5.34375 C 2.160156 -7.351562 1.578125 -9.769531 1.578125 -12.59375 C 1.578125 -15.125 2.082031 -17.378906 3.09375 -19.359375 C 4.101562 -21.347656 5.507812 -22.910156 7.3125 -24.046875 C 9.125 -25.191406 11.171875 -25.765625 13.453125 -25.765625 Z M 9.390625 -13.671875 C 9.390625 -10.410156 9.492188 -7.90625 9.703125 -6.15625 C 9.921875 -4.40625 10.328125 -3.128906 10.921875 -2.328125 C 11.523438 -1.535156 12.40625 -1.140625 13.5625 -1.140625 C 14.613281 -1.140625 15.445312 -1.460938 16.0625 -2.109375 C 16.675781 -2.765625 17.109375 -3.820312 17.359375 -5.28125 C 17.609375 -6.75 17.734375 -8.75 17.734375 -11.28125 C 17.734375 -14.539062 17.644531 -17.023438 17.46875 -18.734375 C 17.289062 -20.453125 16.894531 -21.738281 16.28125 -22.59375 C 15.664062 -23.445312 14.722656 -23.875 13.453125 -23.875 C 11.859375 -23.875 10.78125 -23.015625 10.21875 -21.296875 C 9.664062 -19.578125 9.390625 -17.035156 9.390625 -13.671875 Z M 9.390625 -13.671875 "/></g></g></g><g fill="#ffffff" fill-opacity="1"><g transform="translate(256.299343, 46.185249)"><g><path d="M 17.6875 -25.765625 C 19.851562 -25.765625 21.503906 -25.03125 22.640625 -23.5625 C 23.785156 -22.101562 24.359375 -20.304688 24.359375 -18.171875 L 24.359375 -5.203125 C 24.359375 -4.160156 24.398438 -3.394531 24.484375 -2.90625 C 24.578125 -2.414062 24.738281 -2.039062 24.96875 -1.78125 C 25.207031 -1.53125 25.617188 -1.257812 26.203125 -0.96875 L 26.203125 0 L 14.640625 0 L 14.640625 -0.96875 C 16.160156 -1.15625 16.921875 -2.316406 16.921875 -4.453125 L 16.921875 -18.546875 C 16.921875 -21.046875 16.125 -22.296875 14.53125 -22.296875 C 13.125 -22.296875 11.753906 -21.265625 10.421875 -19.203125 L 10.421875 -4.125 C 10.421875 -2.3125 11.175781 -1.257812 12.6875 -0.96875 L 12.6875 0 L 0.921875 0 L 0.921875 -0.96875 C 1.578125 -1.113281 2.082031 -1.441406 2.4375 -1.953125 C 2.800781 -2.460938 2.984375 -3.273438 2.984375 -4.390625 L 2.984375 -20.9375 C 2.984375 -21.664062 2.828125 -22.34375 2.515625 -22.96875 C 2.210938 -23.601562 1.679688 -24.015625 0.921875 -24.203125 L 0.921875 -25.171875 L 10.421875 -25.171875 L 10.421875 -21.8125 C 11.578125 -23.144531 12.734375 -24.132812 13.890625 -24.78125 C 15.046875 -25.4375 16.3125 -25.765625 17.6875 -25.765625 Z M 17.6875 -25.765625 "/></g></g></g><g fill="#ffffff" fill-opacity="1"><g transform="translate(283.425843, 46.185249)"><g/></g></g><g fill="#ffffff" fill-opacity="1"><g transform="translate(296.989093, 46.185249)"><g><path d="M 18.0625 -36.296875 C 16.726562 -36.296875 15.804688 -36.164062 15.296875 -35.90625 C 14.785156 -35.65625 14.53125 -35.242188 14.53125 -34.671875 C 14.53125 -34.160156 14.769531 -33.4375 15.25 -32.5 L 23.375 -17.3125 L 30.265625 -30.484375 C 31.023438 -31.972656 31.40625 -33.113281 31.40625 -33.90625 C 31.40625 -34.8125 31.023438 -35.4375 30.265625 -35.78125 C 29.503906 -36.125 28.472656 -36.296875 27.171875 -36.296875 L 27.171875 -37.265625 L 38.25 -37.265625 L 38.25 -36.296875 C 37.5625 -36.296875 36.953125 -36.160156 36.421875 -35.890625 C 35.898438 -35.617188 35.34375 -35.070312 34.75 -34.25 C 34.15625 -33.4375 33.421875 -32.21875 32.546875 -30.59375 L 24.578125 -15.359375 L 24.578125 -5.59375 C 24.578125 -4.144531 24.738281 -3.113281 25.0625 -2.5 C 25.382812 -1.882812 25.90625 -1.484375 26.625 -1.296875 C 27.351562 -1.117188 28.585938 -1.007812 30.328125 -0.96875 L 30.328125 0 L 10.140625 0 L 10.140625 -0.96875 C 11.703125 -1.007812 12.878906 -1.15625 13.671875 -1.40625 C 14.460938 -1.664062 15.03125 -2.109375 15.375 -2.734375 C 15.71875 -3.367188 15.890625 -4.335938 15.890625 -5.640625 L 15.890625 -13.828125 L 6.40625 -31.359375 C 5.644531 -32.765625 5.019531 -33.789062 4.53125 -34.4375 C 4.039062 -35.09375 3.515625 -35.566406 2.953125 -35.859375 C 2.390625 -36.148438 1.660156 -36.296875 0.765625 -36.296875 L 0.765625 -37.265625 L 18.0625 -37.265625 Z M 18.0625 -36.296875 "/></g></g></g><g fill="#ffffff" fill-opacity="1"><g transform="translate(335.996994, 46.185249)"><g><path d="M 34.671875 -27.5 L 33.6875 -27.5 C 33.4375 -30.070312 32.628906 -32.007812 31.265625 -33.3125 C 29.910156 -34.613281 28.367188 -35.265625 26.640625 -35.265625 L 22.40625 -35.265625 L 22.40625 -5.859375 C 22.40625 -4.523438 22.582031 -3.515625 22.9375 -2.828125 C 23.300781 -2.140625 23.863281 -1.664062 24.625 -1.40625 C 25.382812 -1.15625 26.453125 -1.007812 27.828125 -0.96875 L 27.828125 0 L 8.296875 0 L 8.296875 -0.96875 C 9.671875 -0.96875 10.726562 -1.066406 11.46875 -1.265625 C 12.21875 -1.472656 12.78125 -1.921875 13.15625 -2.609375 C 13.53125 -3.296875 13.71875 -4.34375 13.71875 -5.75 L 13.71875 -35.265625 L 9.0625 -35.265625 C 7.4375 -35.265625 5.988281 -34.550781 4.71875 -33.125 C 3.457031 -31.695312 2.695312 -29.820312 2.4375 -27.5 L 1.46875 -27.5 L 1.46875 -37.265625 L 34.671875 -37.265625 Z M 34.671875 -27.5 "/></g></g></g></svg>